<?xml version="1.0" encoding="utf-8"?>
<!-- Generator: Adobe Illustrator 16.0.0, SVG Export Plug-In . SVG Version: 6.00 Build 0)  -->
<!DOCTYPE svg PUBLIC "-//W3C//DTD SVG 1.1//EN" "http://www.w3.org/Graphics/SVG/1.1/DTD/svg11.dtd">
<svg version="1.1" xmlns="http://www.w3.org/2000/svg" xmlns:xlink="http://www.w3.org/1999/xlink" x="0px" y="0px" width="1000px"
	 height="1000px" viewBox="0 0 1000 1000" enable-background="new 0 0 1000 1000" xml:space="preserve">
<g id="Fondo" display="none">
	<path display="inline" fill="#14753D" d="M971.066,898.896c0,39.032-31.729,70.675-70.868,70.675H103.481
		c-39.14,0-70.868-31.643-70.868-70.675V98.292c0-39.033,31.729-70.675,70.868-70.675h796.717c39.14,0,70.868,31.642,70.868,70.675
		V898.896z"/>
</g>
<g id="Letra" display="none">
	
		<text transform="matrix(0.9629 0 0 1 486 452.4102)" display="inline" fill="#FFFFFF" stroke="#010002" stroke-miterlimit="10" font-family="'CenturyGothic-Bold'" font-size="116.6663">Abastos Check</text>
	<text transform="matrix(1.73 0 0 1.15 499.4292 544.4883)" display="inline"><tspan x="0" y="0" fill="#E2AD58" font-family="'MyriadPro-BoldCond'" font-size="36" letter-spacing="9.827">CALIDAD Y FRESCURA</tspan><tspan x="-40.716" y="37.565" fill="#E2AD58" font-family="'MyriadPro-BoldCond'" font-size="36" letter-spacing="9.827">AL ALCANCE DE UN CLICK</tspan></text>
</g>
<g id="Celular">
	<path fill="#929595" stroke="#000000" stroke-miterlimit="10" d="M38.103,697.574l0.417,0.681l-0.088,1.129l-2.078,26.926
		c0,0,0.167,4.761,3.916,7.228L392.92,870.095c0,0,23.323,5.894,38.317,1.36l523.465-263.397c0,0,8.496-6.973,8.163-12.073
		s1.166-23.805,1.166-23.805s-1.249-3.653-3.665-4.759c-2.416-1.106-525.576,265.384-525.576,265.384s-12.523,7.422-26.017,1.387
		L44.849,692.815c0,0-5.012-0.635-5.852,4.738c0,0,0.203-1.6-0.34,2.167"/>
	<polygon fill="#BABABA" stroke="#000000" stroke-miterlimit="10" points="507.563,809.367 507.563,824.925 622.21,765.644 
		623.042,751.984 	"/>
	<path fill="#BABABA" stroke="#000000" stroke-miterlimit="10" d="M661.136,734.982c0,0-7.773,5.668-5.997,9.636
		c1.777,3.966,9.663-0.794,9.663-0.794l70.08-36.953c0,0,4.109-1.588,4.553-7.596c-1.36-5.156-23.739,8.729-23.739,8.729
		L661.136,734.982z"/>
	<path fill="#BABABA" stroke="#000000" stroke-miterlimit="10" d="M748.209,698.128c0,0-0.556,5.91,6.663,2.282l106.704-55.373
		c0,0,6.16-2.813,4.488-11.127c-0.023-0.116-0.047-0.231-0.073-0.351c-2.167-7.225-67.139,30.69-67.139,30.69l-45.313,23.125
		C753.54,687.375,748.265,689.44,748.209,698.128z"/>
	<path fill="#090609" d="M569.988,489.887c15.012-5.871,20.688-9.238,31.688-4.801l355.223,79.631
		c4.624,1.76,1.563,3.477-3.069,5.515L435.16,833.448c-5.082,1.841-19.259,3.781-23.884,2.023L47.479,693.489
		c-4.624-1.757-4.249-4.676,0.831-6.519L569.988,489.887z"/>
	<path fill="#17181D" d="M566.493,495.551c14.04-5.578,19.349-8.779,29.634-4.562l332.198,75.68
		c4.325,1.674,1.462,3.307-2.871,5.243L440.406,822.075c-4.752,1.749-18.01,3.593-22.334,1.922L77.855,689.054
		c-4.324-1.669-3.973-4.442,0.778-6.191L566.493,495.551z"/>
	<path fill="#1A9996" d="M573.395,501.366c12.274-4.474,12.108-3.906,21.99-1.573l303.211,69.967
		c3.758,1.313,2.326,5.323-1.44,6.841l-404.48,197.696c-4.132,1.372-11.955,3.222-15.713,1.91L161.307,661.403
		c-3.758-1.308-3.455-3.482,0.676-4.855L573.395,501.366z"/>
</g>
<g id="Carrito">
	<polygon id="Relleno_24_" fill="#FFFFFF" points="346.6,473.141 342.128,459.197 490.198,409.738 494.669,423.68 	"/>
	<polygon id="Relleno_11_" fill="#FFFFFF" points="492.809,422.837 478.922,426.636 409.393,161.994 423.276,158.196 	"/>
	<polygon id="Relleno_10_" fill="#FFFFFF" points="629.304,233.555 624.333,247.322 415.106,168.625 420.079,154.86 	"/>
	<polygon id="Relleno_9_" fill="#FFFFFF" points="738.244,476.793 734.559,490.977 475.057,420.785 478.741,406.605 	"/>
	<path fill="#FFFFFF" stroke="#000000" stroke-width="5" stroke-miterlimit="10" d="M332.554,611.711
		c0,0-4.272,25.563,24.989,37.237c0,0,26.158,10.199,28.654-21.254c0,0,1.904-19.04-14.661-31.113
		c-16.49-12.02-30.82-0.341-30.986,0C340.384,596.92,333.279,604.624,332.554,611.711z"/>
	<path fill="#FFFFFF" stroke="#000000" stroke-width="5" stroke-miterlimit="10" d="M510.611,656.703
		c0,0-4.273,25.563,24.989,37.236c0,0,26.158,10.199,28.653-21.252c0,0,1.904-19.043-14.66-31.114
		c-16.488-12.021-30.82-0.341-30.987,0C518.441,641.911,511.336,649.615,510.611,656.703z"/>
	<path fill="#FFFFFF" stroke="#000000" stroke-width="5" stroke-miterlimit="10" d="M480.597,561.68c0,0-4.272,25.562,24.988,37.235
		c0,0,26.16,10.199,28.654-21.253c0,0,1.904-19.042-14.66-31.113c-16.488-12.02-30.82-0.343-30.986,0
		C488.427,546.887,481.321,554.591,480.597,561.68z"/>
	<path fill="#FEFEFE" stroke="#000000" stroke-width="5" stroke-miterlimit="10" d="M658.879,606.502c0,0-4.273,25.563,24.99,37.236
		c0,0,26.158,10.199,28.652-21.255c0,0,1.904-19.038-14.66-31.113c-16.488-12.019-30.818-0.34-30.985,0
		C666.71,591.711,659.604,599.415,658.879,606.502z"/>
	<path fill="#010002" d="M553.218,664.38c0.696,9.343-5.837,17.039-14.596,17.196c-8.761,0.155-16.427-7.284-17.126-16.625
		c-0.7-9.34,5.836-17.036,14.596-17.192C544.851,647.601,552.517,655.041,553.218,664.38z"/>
	<path fill="#010002" d="M523.203,570.525c0.697,9.343-5.836,17.04-14.596,17.198c-8.759,0.152-16.426-7.287-17.125-16.628
		c-0.702-9.34,5.833-17.037,14.595-17.192C514.837,553.746,522.502,561.187,523.203,570.525z"/>
	<path fill="#010002" d="M701.485,614.441c0.698,9.343-5.836,17.039-14.595,17.195c-8.762,0.154-16.427-7.284-17.125-16.625
		c-0.702-9.341,5.834-17.037,14.595-17.193C693.119,597.662,700.785,605.102,701.485,614.441z"/>
	<path fill="#010002" d="M375.517,620.87c0.698,9.343-5.836,17.04-14.596,17.195s-16.426-7.283-17.125-16.624
		c-0.701-9.342,5.834-17.039,14.595-17.195C367.15,604.09,374.817,611.531,375.517,620.87z"/>
	<path fill="#FFFFFF" stroke="#000000" stroke-width="4" stroke-miterlimit="10" d="M499.067,531.994v36.876
		c0,0,2.888,10.188,8.553,9.857c5.664-0.333,7.997-8.084,7.997-8.084v-39.096c0,0-0.113-8.306-8.276-8.195
		C499.178,523.464,499.067,531.994,499.067,531.994z"/>
	<path fill="#FFFFFF" stroke="#000000" stroke-width="4" stroke-miterlimit="10" d="M677.351,576.9v35.027
		c0,0,2.889,9.678,8.552,9.359c5.665-0.313,7.996-7.678,7.996-7.678v-37.133c0,0-0.112-7.89-8.274-7.783
		C677.461,568.801,677.351,576.9,677.351,576.9z"/>
	<path fill="#FFFFFF" stroke="#000000" stroke-width="4" stroke-miterlimit="10" d="M529.081,625.821v37.744
		c0,0,2.89,10.428,8.554,10.087c5.664-0.34,7.995-8.277,7.995-8.277v-40.01c0,0-0.111-8.502-8.273-8.39
		C529.192,617.09,529.081,625.821,529.081,625.821z"/>
	<path fill="#FFFFFF" stroke="#000000" stroke-width="4" stroke-miterlimit="10" d="M351.049,581.614v37.745
		c0,0,2.888,10.427,8.552,10.086c5.665-0.341,7.997-8.274,7.997-8.274v-40.013c0,0-0.111-8.502-8.274-8.387
		C351.161,572.882,351.049,581.614,351.049,581.614z"/>
	<path fill="#FFFFFF" stroke="#000000" stroke-width="5" stroke-miterlimit="10" d="M562.289,639.766l-229.954-57.127
		c0,0-35.263-11.222-20.27-52.368l19.658-57.129l14.161,7.481l-19.825,59.168c0,0-9.996,22.104,12.994,29.244
		c22.99,7.142,141.324,35.365,141.324,35.365l85.577,21.763L562.289,639.766z"/>
	<path fill="#FFFFFF" stroke="#000000" stroke-width="5" stroke-miterlimit="10" d="M459.335,509.866
		c0,0,4.664,21.083,35.318,25.504c30.653,4.421,209.909,52.368,209.909,52.368l7.579,2.041c0,0,7.33-0.341,8.079-5.525
		c0.75-5.187-4.914-10.031-4.914-10.031L459.335,509.866z"/>
	<path fill="#FFFFFF" stroke="#000000" stroke-width="5" stroke-miterlimit="10" d="M421.462,154.002l-13.605,6.177l-26.822-45.113
		c0,0-0.333-3.458-15.715-5.554l-19.603-3.797l1.666-15.218l41.898,9.776c0,0,2.166-0.339,5.415,6.972L421.462,154.002z"/>
	<path fill="#FFFFFF" stroke="#000000" stroke-width="5" stroke-miterlimit="10" d="M187.62,129.008l144.77-48.457
		c0,0,11.662,0.51,13.328,9.182c1.666,8.67,2.166,12.412-6.997,16.321c-9.164,3.911-113.873,39.974-113.873,39.974l-25.774,9.845
		c0,0-13.79,6.673-20.785-7.63C171.294,133.938,187.62,129.008,187.62,129.008z"/>
	<path fill="#FFFFFF" stroke="#000000" stroke-width="5" stroke-miterlimit="10" d="M261.977,216.629c0,0,6.664,6.573,10.662,4.307
		c3.999-2.267,3.333-9.975,3.333-9.975l-29.987-54.861c0,0-2.222-5.667-10.662-7.481c-8.44-1.813-44.647-11.789-44.647-11.789
		s-13.772-6.575-12.661,10.881c0,0,4.886,10.428,13.994,8.162l6.22-0.227l34.207,9.153c0,0-0.694-3.882,9.37,15.303L261.977,216.629
		z"/>
	<path fill="#FFFFFF" stroke="#000000" stroke-miterlimit="10" d="M594.275,537.182"/>
	<path fill="none" stroke="#000000" stroke-width="4" stroke-miterlimit="10" d="M343.275,458.29l132.164-44.661l-64.012-238.711
		c0,0-1.515-11.335,0-16.359c1.514-5.024,10.036-1.323,10.036-1.323l201.466,74.13v16.097l-188.36-70.957
		c0,0-11.772-7.708-4.442,8.841l61.195,223.184l247.813,66.384"/>
	<polyline fill="none" stroke="#000000" stroke-width="4" stroke-miterlimit="10" points="363.956,471.457 487.323,426.894 
		710.528,485.962 	"/>
	
		<line fill="none" stroke="#000000" stroke-width="7" stroke-miterlimit="10" x1="437.316" y1="211.574" x2="668.911" y2="273.304"/>
	
		<line fill="none" stroke="#000000" stroke-width="7" stroke-miterlimit="10" x1="445.779" y1="242.439" x2="746.211" y2="317.397"/>
	
		<line fill="none" stroke="#000000" stroke-width="7" stroke-miterlimit="10" x1="454.243" y1="273.304" x2="700.844" y2="334.911"/>
	
		<line fill="none" stroke="#000000" stroke-width="7" stroke-miterlimit="10" x1="415.772" y1="191.121" x2="281.347" y2="235.753"/>
	
		<line fill="none" stroke="#000000" stroke-width="7" stroke-miterlimit="10" x1="287.223" y1="256.872" x2="421.756" y2="213.437"/>
	
		<line fill="none" stroke="#000000" stroke-width="7" stroke-miterlimit="10" x1="292.497" y1="275.826" x2="428.292" y2="237.809"/>
	<line fill="none" stroke="#000000" stroke-width="7" stroke-miterlimit="10" x1="299.615" y1="301.4" x2="434.101" y2="259.471"/>
	
		<line fill="none" stroke="#000000" stroke-width="7" stroke-miterlimit="10" x1="305.105" y1="321.127" x2="439.025" y2="277.838"/>
	<line fill="none" stroke="#000000" stroke-width="7" stroke-miterlimit="10" x1="311.507" y1="344.134" x2="445.344" y2="301.4"/>
	<line fill="none" stroke="#000000" stroke-width="7" stroke-miterlimit="10" x1="317.73" y1="366.496" x2="452.806" y2="329.229"/>
	
		<line fill="none" stroke="#000000" stroke-width="7" stroke-miterlimit="10" x1="324.135" y1="389.513" x2="458.298" y2="349.712"/>
	
		<line fill="none" stroke="#000000" stroke-width="7" stroke-miterlimit="10" x1="330.576" y1="412.655" x2="464.123" y2="371.431"/>
	
		<line fill="none" stroke="#000000" stroke-width="7" stroke-miterlimit="10" x1="336.215" y1="432.918" x2="469.651" y2="392.042"/>
	
		<line fill="none" stroke="#000000" stroke-width="7" stroke-miterlimit="10" x1="469.651" y1="329.229" x2="769.854" y2="392.042"/>
	<line fill="none" stroke="#000000" stroke-width="7" stroke-miterlimit="10" x1="462.549" y1="304.106" x2="778.384" y2="368.3"/>
	
		<line fill="none" stroke="#000000" stroke-width="7" stroke-miterlimit="10" x1="475.193" y1="349.712" x2="761.697" y2="414.747"/>
	<line fill="none" stroke="#000000" stroke-width="7" stroke-miterlimit="10" x1="480.649" y1="369.612" x2="755.17" y2="432.918"/>
	
		<line fill="none" stroke="#000000" stroke-width="7" stroke-miterlimit="10" x1="486.106" y1="389.513" x2="746.211" y2="456.427"/>
	<line fill="none" stroke="#000000" stroke-width="7" stroke-miterlimit="10" x1="385.268" y1="476.91" x2="507.203" y2="432.918"/>
	
		<line fill="none" stroke="#000000" stroke-width="7" stroke-miterlimit="10" x1="413.109" y1="484.006" x2="529.643" y2="438.093"/>
	
		<line fill="none" stroke="#000000" stroke-width="7" stroke-miterlimit="10" x1="438.828" y1="490.551" x2="551.182" y2="443.792"/>
	
		<line fill="none" stroke="#000000" stroke-width="7" stroke-miterlimit="10" x1="464.123" y1="496.982" x2="570.066" y2="448.791"/>
	
		<line fill="none" stroke="#000000" stroke-width="7" stroke-miterlimit="10" x1="488.229" y1="503.105" x2="589.812" y2="454.016"/>
	
		<line fill="none" stroke="#000000" stroke-width="7" stroke-miterlimit="10" x1="514.848" y1="509.866" x2="611.363" y2="459.719"/>
	
		<line fill="none" stroke="#000000" stroke-width="7" stroke-miterlimit="10" x1="541.206" y1="516.558" x2="635.767" y2="466.178"/>
	
		<line fill="none" stroke="#000000" stroke-width="5" stroke-miterlimit="10" x1="571.824" y1="524.326" x2="663.464" y2="473.507"/>
	<polyline fill="none" stroke="#000000" stroke-width="7" stroke-miterlimit="10" points="682.563,478.561 613.07,518.694 
		392.766,461.05 	"/>
	
		<line fill="none" stroke="#000000" stroke-width="7" stroke-miterlimit="10" x1="633.674" y1="506.795" x2="426.703" y2="448.791"/>
	<line fill="none" stroke="#000000" stroke-width="7" stroke-miterlimit="10" x1="658" y1="502.189" x2="454.539" y2="438.736"/>
	<line fill="none" stroke="#000000" stroke-width="7" stroke-miterlimit="10" x1="687.568" y1="493.86" x2="476.966" y2="430.634"/>
	
		<line fill="none" stroke="#000000" stroke-width="7" stroke-miterlimit="10" x1="290.155" y1="211.574" x2="358.275" y2="453.222"/>
	
		<line fill="none" stroke="#000000" stroke-width="7" stroke-miterlimit="10" x1="382.501" y1="445.035" x2="313.576" y2="204.058"/>
	
		<line fill="none" stroke="#000000" stroke-width="7" stroke-miterlimit="10" x1="331.891" y1="198.181" x2="399.747" y2="436.046"/>
	<line fill="none" stroke="#000000" stroke-width="7" stroke-miterlimit="10" x1="350.49" y1="191.809" x2="419.491" y2="432.608"/>
	
		<line fill="none" stroke="#000000" stroke-width="7" stroke-miterlimit="10" x1="372.065" y1="185.289" x2="439.025" y2="425.934"/>
	
		<line fill="none" stroke="#000000" stroke-width="7" stroke-miterlimit="10" x1="390.439" y1="179.394" x2="458.298" y2="419.421"/>
	<line fill="none" stroke="#000000" stroke-width="7" stroke-miterlimit="10" x1="445.779" y1="179.394" x2="506.064" y2="412.48"/>
	
		<line fill="none" stroke="#000000" stroke-width="7" stroke-miterlimit="10" x1="475.193" y1="191.809" x2="522.784" y2="417.883"/>
	<line fill="none" stroke="#000000" stroke-width="7" stroke-miterlimit="10" x1="499.084" y1="201.36" x2="542.633" y2="421.623"/>
	
		<line fill="none" stroke="#000000" stroke-width="7" stroke-miterlimit="10" x1="529.643" y1="212.321" x2="567.383" y2="428.906"/>
	<line fill="none" stroke="#000000" stroke-width="7" stroke-miterlimit="10" x1="556.27" y1="222.351" x2="594.039" y2="436.046"/>
	<line fill="none" stroke="#000000" stroke-width="7" stroke-miterlimit="10" x1="583.128" y1="232.469" x2="624.76" y2="444.276"/>
	
		<line fill="none" stroke="#000000" stroke-width="7" stroke-miterlimit="10" x1="609.592" y1="242.439" x2="648.529" y2="450.643"/>
	<line fill="none" stroke="#000000" stroke-width="7" stroke-miterlimit="10" x1="639.215" y1="260.04" x2="670.123" y2="456.427"/>
	<line fill="none" stroke="#000000" stroke-width="7" stroke-miterlimit="10" x1="666.637" y1="270.534" x2="694.323" y2="462.91"/>
	
		<line fill="none" stroke="#000000" stroke-width="7" stroke-miterlimit="10" x1="692.506" y1="280.436" x2="718.459" y2="469.376"/>
	
		<line fill="none" stroke="#000000" stroke-width="7" stroke-miterlimit="10" x1="718.459" y1="290.368" x2="737.547" y2="473.141"/>
	<line fill="none" stroke="#000000" stroke-width="7" stroke-miterlimit="10" x1="745.068" y1="300.553" x2="755.17" y2="436.046"/>
	<polygon id="Relleno_8_" fill="#FFFFFF" points="334.924,479.889 337.379,468.999 598.438,530.316 595.981,541.207 	"/>
	<polygon id="Relleno_7_" fill="#FFFFFF" points="261.5,213.25 273.658,209.728 346.03,469.966 333.872,473.486 	"/>
	<polygon id="Relleno_6_" fill="#FFFFFF" points="604.094,534.243 593.438,530.31 654.705,357.432 665.362,361.368 	"/>
	<polygon id="Relleno_5_" fill="#FFFFFF" points="517.875,302.196 513.991,312.646 264.328,216.015 268.212,205.567 	"/>
	<polygon id="Relleno_4_" fill="#FFFFFF" points="406.034,159.129 409.3,169.799 272.525,213.392 269.262,202.724 	"/>
	<polygon id="Relleno_3_" fill="#FFFFFF" points="807.133,326.087 668.441,372.297 661.441,350.402 800.125,304.193 	"/>
	<polygon id="Relleno_2_" fill="#FFFFFF" points="811.45,329.526 752.442,485.95 739.377,480.813 798.385,324.397 	"/>
	<polygon id="Relleno_1_" fill="#FFFFFF" points="749.146,486.996 611.083,534.028 606.65,520.473 744.71,473.444 	"/>
	<path fill="none" stroke="#000000" stroke-width="7" stroke-miterlimit="10" d="M279.747,230.007l63.972,229.875
		c0,0,0.889,6.347,7.108,8.161c6.219,1.815,226.123,57.583,226.123,57.583s16.883,8.835,23.547-15.76l50.421-148.942
		L284.745,225.923C284.745,225.923,275.499,220.659,279.747,230.007z"/>
	<path fill="none" stroke="#000000" stroke-width="5" stroke-miterlimit="10" d="M261.754,218.896l68.637,246.424
		c0,0,1.555,15.64,23.101,16.094l222.623,57.813c0,0,28.156,9.518,39.485-27.435l47.755-135.112v-20.177L281.523,211.415
		c0,0-9.607-6.915-14.938-2.494C261.255,213.341,261.754,218.896,261.754,218.896z"/>
	<line fill="none" stroke="#000000" stroke-width="4" stroke-miterlimit="10" x1="663.355" y1="347" x2="773.562" y2="311.458"/>
	<path fill="none" stroke="#000000" stroke-width="4" stroke-miterlimit="10" d="M598.002,536.778l142.21-43.803
		c0,0,11.329-3.851,18.215-22.667l54.198-144.319l-142.849,46.819"/>
	<path fill="#FFFFFF" stroke="#000000" stroke-width="5" stroke-miterlimit="10" d="M474.106,305.042l186.363,68.917
		c0,0,11.55,1.813,13.105-6.121c1.555-7.935-4.886-19.042-7.774-19.949c-2.888-0.907-186.808-70.051-186.808-70.051L474.106,305.042
		z"/>
	<path fill="#FFFFFF" stroke="#000000" stroke-width="5" stroke-miterlimit="10" d="M625.763,227.453l-2.834,26.354l183.922,70.391
		c0,0,14.493-0.68,15.992-9.352c1.5-8.671-7.996-18.193-10.996-19.042C808.85,294.954,625.763,227.453,625.763,227.453z"/>
	<path fill="none" stroke="#000000" stroke-width="4" stroke-miterlimit="10" d="M791.044,333.061L742.879,467.13
		c0,0-1.555,12.465-16.882,14.053l-111.723,34.513"/>
	<line fill="none" stroke="#000000" stroke-width="4" stroke-miterlimit="10" x1="270.724" y1="201.36" x2="406.221" y2="157.427"/>
	
		<line fill="none" stroke="#000000" stroke-width="4" stroke-miterlimit="10" x1="285.701" y1="213.003" x2="410.754" y2="172.875"/>
	
		<line fill="none" stroke="#000000" stroke-width="7" stroke-miterlimit="10" x1="287.542" y1="246.179" x2="640.704" y2="379.114"/>
	<line fill="none" stroke="#000000" stroke-width="7" stroke-miterlimit="10" x1="290.155" y1="269.048" x2="634.88" y2="399.528"/>
	
		<line fill="none" stroke="#000000" stroke-width="7" stroke-miterlimit="10" x1="301.139" y1="297.889" x2="633.793" y2="423.383"/>
	<line fill="none" stroke="#000000" stroke-width="7" stroke-miterlimit="10" x1="306.056" y1="324.546" x2="624.151" y2="446.45"/>
	
		<line fill="none" stroke="#000000" stroke-width="7" stroke-miterlimit="10" x1="313.576" y1="353.269" x2="615.164" y2="468.999"/>
	<line fill="none" stroke="#000000" stroke-width="7" stroke-miterlimit="10" x1="321.229" y1="384.387" x2="608.27" y2="493.433"/>
	<line fill="none" stroke="#000000" stroke-width="7" stroke-miterlimit="10" x1="328.06" y1="409.738" x2="601.748" y2="513.033"/>
	
		<line fill="none" stroke="#000000" stroke-width="7" stroke-miterlimit="10" x1="334.056" y1="432.608" x2="588.897" y2="526.662"/>
	
		<line fill="none" stroke="#000000" stroke-width="7" stroke-miterlimit="10" x1="294.631" y1="227.453" x2="354.489" y2="469.015"/>
	<line fill="none" stroke="#000000" stroke-width="7" stroke-miterlimit="10" x1="321.383" y1="239.43" x2="377.967" y2="468.642"/>
	<line fill="none" stroke="#000000" stroke-width="7" stroke-miterlimit="10" x1="349.216" y1="247.97" x2="405.888" y2="478.213"/>
	<line fill="none" stroke="#000000" stroke-width="7" stroke-miterlimit="10" x1="378.92" y1="259.471" x2="435.816" y2="489.08"/>
	<line fill="none" stroke="#000000" stroke-width="7" stroke-miterlimit="10" x1="401.916" y1="267.976" x2="458.22" y2="493.078"/>
	
		<line fill="none" stroke="#000000" stroke-width="7" stroke-miterlimit="10" x1="425.128" y1="276.591" x2="481.029" y2="499.895"/>
	
		<line fill="none" stroke="#000000" stroke-width="7" stroke-miterlimit="10" x1="447.507" y1="288.493" x2="503.169" y2="509.331"/>
	
		<line fill="none" stroke="#000000" stroke-width="7" stroke-miterlimit="10" x1="469.943" y1="291.823" x2="524.933" y2="513.742"/>
	
		<line fill="none" stroke="#000000" stroke-width="7" stroke-miterlimit="10" x1="495.749" y1="317.397" x2="546.021" y2="520.282"/>
	
		<line fill="none" stroke="#000000" stroke-width="7" stroke-miterlimit="10" x1="519.309" y1="325.988" x2="567.171" y2="524.326"/>
	
		<line fill="none" stroke="#000000" stroke-width="7" stroke-miterlimit="10" x1="535.635" y1="329.229" x2="586.197" y2="527.386"/>
	
		<line fill="none" stroke="#000000" stroke-width="7" stroke-miterlimit="10" x1="559.499" y1="338.245" x2="599.958" y2="511.906"/>
	
		<line fill="none" stroke="#000000" stroke-width="7" stroke-miterlimit="10" x1="578.023" y1="345.438" x2="611.355" y2="477.793"/>
	
		<line fill="none" stroke="#000000" stroke-width="7" stroke-miterlimit="10" x1="598.002" y1="350.858" x2="621.749" y2="448.791"/>
	
		<line fill="none" stroke="#000000" stroke-width="7" stroke-miterlimit="10" x1="620.467" y1="358.111" x2="633.674" y2="413.427"/>
	
		<line fill="none" stroke="#000000" stroke-width="7" stroke-miterlimit="10" x1="746.724" y1="456.427" x2="619.752" y2="498.013"/>
	
		<line fill="none" stroke="#000000" stroke-width="7" stroke-miterlimit="10" x1="751.731" y1="433.224" x2="629.678" y2="472.801"/>
	
		<line fill="none" stroke="#000000" stroke-width="7" stroke-miterlimit="10" x1="763.646" y1="408.246" x2="637.436" y2="450.015"/>
	<line fill="none" stroke="#000000" stroke-width="7" stroke-miterlimit="10" x1="771.703" y1="386.896" x2="645.31" y2="428.992"/>
	
		<line fill="none" stroke="#000000" stroke-width="7" stroke-miterlimit="10" x1="781.569" y1="360.201" x2="654.084" y2="402.917"/>
	<line fill="none" stroke="#000000" stroke-width="7" stroke-miterlimit="10" x1="779.818" y1="336.95" x2="727.032" y2="481.051"/>
	<line fill="none" stroke="#000000" stroke-width="7" stroke-miterlimit="10" x1="762.807" y1="342.582" x2="710.13" y2="487.242"/>
	
		<line fill="none" stroke="#000000" stroke-width="7" stroke-miterlimit="10" x1="736.922" y1="351.228" x2="684.135" y2="495.538"/>
	<line fill="none" stroke="#000000" stroke-width="7" stroke-miterlimit="10" x1="716.431" y1="357.778" x2="664.31" y2="499.048"/>
	
		<line fill="none" stroke="#000000" stroke-width="7" stroke-miterlimit="10" x1="687.791" y1="367.384" x2="636.963" y2="508.202"/>
</g>
</svg>
